<svg t="1741233800558" class="icon" viewBox="0 0 1024 1024" version="1.1" xmlns="http://www.w3.org/2000/svg" p-id="16037" width="200" height="200"><path d="M512 85.333c-234.667 0-426.667 192-426.667 426.667s192 426.667 426.667 426.667 426.667-192 426.667-426.667S746.667 85.333 512 85.333z m0 782.208c-195.541 0-355.541-160-355.541-355.541s160-355.541 355.541-355.541 355.541 160 355.541 355.541-160 355.541-355.541 355.541z" fill="#333333" p-id="16038"></path><path d="M298.667 423.125a53.333 53.333 0 1 0 106.666 0 53.333 53.333 0 0 0-106.666 0z m320 0a53.333 53.333 0 1 0 106.666 0 53.333 53.333 0 0 0-106.666 0zM664.875 608c-17.75-7.125-39.083 3.541-46.208 21.333C600.875 675.541 558.208 704 508.459 704c-49.792 0-92.459-32-110.251-74.667C391.125 611.541 369.792 600.875 352 608c-17.792 7.125-28.459 28.459-21.333 46.208 28.458 74.667 96 120.917 174.208 120.917 78.25 0 149.333-49.792 174.25-120.917 14.208-21.333 7.083-39.083-14.25-46.208z" fill="#333333" p-id="16039"></path></svg>